<?xml version="1.0" encoding="UTF-8" standalone="no"?>
<!DOCTYPE svg PUBLIC "-//W3C//DTD SVG 1.1//EN"
 "http://www.w3.org/Graphics/SVG/1.1/DTD/svg11.dtd">
<!-- Generated by graphviz version 2.40.1 (20161225.0304)
 -->
<!-- Title: snakemake_dag Pages: 1 -->
<svg width="270pt" height="359pt"
 viewBox="0.00 0.00 270.00 359.00" xmlns="http://www.w3.org/2000/svg" xmlns:xlink="http://www.w3.org/1999/xlink">
<g id="graph0" class="graph" transform="scale(1 1) rotate(0) translate(4 355)">
<title>snakemake_dag</title>
<polygon fill="#ffffff" stroke="transparent" points="-4,4 -4,-355 266,-355 266,4 -4,4"/>
<!-- 0 -->
<g id="node1" class="node">
<title>0</title>
<path fill="none" stroke="#afd856" stroke-width="2" d="M163.5,-63C163.5,-63 101.5,-63 101.5,-63 95.5,-63 89.5,-57 89.5,-51 89.5,-51 89.5,-12 89.5,-12 89.5,-6 95.5,0 101.5,0 101.5,0 163.5,0 163.5,0 169.5,0 175.5,-6 175.5,-12 175.5,-12 175.5,-51 175.5,-51 175.5,-57 169.5,-63 163.5,-63"/>
<text text-anchor="middle" x="132.5" y="-51" font-family="sans" font-size="10.00" fill="#000000">annotate_cnv</text>
<text text-anchor="middle" x="132.5" y="-40" font-family="sans" font-size="10.00" fill="#000000">chrom: 1</text>
<text text-anchor="middle" x="132.5" y="-29" font-family="sans" font-size="10.00" fill="#000000">cnv_type: loss</text>
<text text-anchor="middle" x="132.5" y="-18" font-family="sans" font-size="10.00" fill="#000000">end: 600000</text>
<text text-anchor="middle" x="132.5" y="-7" font-family="sans" font-size="10.00" fill="#000000">start: 50000</text>
</g>
<!-- 1 -->
<g id="node2" class="node">
<title>1</title>
<path fill="none" stroke="#56d8a9" stroke-width="2" d="M186,-135C186,-135 79,-135 79,-135 73,-135 67,-129 67,-123 67,-123 67,-111 67,-111 67,-105 73,-99 79,-99 79,-99 186,-99 186,-99 192,-99 198,-105 198,-111 198,-111 198,-123 198,-123 198,-129 192,-135 186,-135"/>
<text text-anchor="middle" x="132.5" y="-114.5" font-family="sans" font-size="10.00" fill="#000000">preprocess_genes_data</text>
</g>
<!-- 1&#45;&gt;0 -->
<g id="edge1" class="edge">
<title>1&#45;&gt;0</title>
<path fill="none" stroke="#c0c0c0" stroke-width="2" d="M132.5,-98.8676C132.5,-91.3172 132.5,-82.2125 132.5,-73.1722"/>
<polygon fill="#c0c0c0" stroke="#c0c0c0" stroke-width="2" points="136.0001,-73.0789 132.5,-63.079 129.0001,-73.079 136.0001,-73.0789"/>
</g>
<!-- 2 -->
<g id="node3" class="node">
<title>2</title>
<path fill="none" stroke="#d85656" stroke-width="2" d="M206,-207C206,-207 59,-207 59,-207 53,-207 47,-201 47,-195 47,-195 47,-183 47,-183 47,-177 53,-171 59,-171 59,-171 206,-171 206,-171 212,-171 218,-177 218,-183 218,-183 218,-195 218,-195 218,-201 212,-207 206,-207"/>
<text text-anchor="middle" x="132.5" y="-186.5" font-family="sans" font-size="10.00" fill="#000000">annotate_gencode_with_dbnsfp</text>
</g>
<!-- 2&#45;&gt;1 -->
<g id="edge2" class="edge">
<title>2&#45;&gt;1</title>
<path fill="none" stroke="#c0c0c0" stroke-width="2" d="M132.5,-170.8314C132.5,-163.131 132.5,-153.9743 132.5,-145.4166"/>
<polygon fill="#c0c0c0" stroke="#c0c0c0" stroke-width="2" points="136.0001,-145.4132 132.5,-135.4133 129.0001,-145.4133 136.0001,-145.4132"/>
</g>
<!-- 3 -->
<g id="node4" class="node">
<title>3</title>
<path fill="none" stroke="#d8ac56" stroke-width="2" d="M102.5,-279C102.5,-279 34.5,-279 34.5,-279 28.5,-279 22.5,-273 22.5,-267 22.5,-267 22.5,-255 22.5,-255 22.5,-249 28.5,-243 34.5,-243 34.5,-243 102.5,-243 102.5,-243 108.5,-243 114.5,-249 114.5,-255 114.5,-255 114.5,-267 114.5,-267 114.5,-273 108.5,-279 102.5,-279"/>
<text text-anchor="middle" x="68.5" y="-258.5" font-family="sans" font-size="10.00" fill="#000000">gencode_genes</text>
</g>
<!-- 3&#45;&gt;2 -->
<g id="edge3" class="edge">
<title>3&#45;&gt;2</title>
<path fill="none" stroke="#c0c0c0" stroke-width="2" d="M84.6499,-242.8314C92.1717,-234.3694 101.2565,-224.1489 109.4804,-214.8971"/>
<polygon fill="#c0c0c0" stroke="#c0c0c0" stroke-width="2" points="112.1049,-217.2127 116.1327,-207.4133 106.873,-212.5621 112.1049,-217.2127"/>
</g>
<!-- 4 -->
<g id="node5" class="node">
<title>4</title>
<path fill="none" stroke="#56a9d8" stroke-width="2" d="M250,-279C250,-279 145,-279 145,-279 139,-279 133,-273 133,-267 133,-267 133,-255 133,-255 133,-249 139,-243 145,-243 145,-243 250,-243 250,-243 256,-243 262,-249 262,-255 262,-255 262,-267 262,-267 262,-273 256,-279 250,-279"/>
<text text-anchor="middle" x="197.5" y="-258.5" font-family="sans" font-size="10.00" fill="#000000">download_dbnsfp_data</text>
</g>
<!-- 4&#45;&gt;2 -->
<g id="edge4" class="edge">
<title>4&#45;&gt;2</title>
<path fill="none" stroke="#c0c0c0" stroke-width="2" d="M181.0978,-242.8314C173.4585,-234.3694 164.2317,-224.1489 155.8793,-214.8971"/>
<polygon fill="#c0c0c0" stroke="#c0c0c0" stroke-width="2" points="158.4221,-212.4906 149.1231,-207.4133 153.2262,-217.1813 158.4221,-212.4906"/>
</g>
<!-- 5 -->
<g id="node6" class="node">
<title>5</title>
<path fill="none" stroke="#59d856" stroke-width="2" d="M125,-351C125,-351 12,-351 12,-351 6,-351 0,-345 0,-339 0,-339 0,-327 0,-327 0,-321 6,-315 12,-315 12,-315 125,-315 125,-315 131,-315 137,-321 137,-327 137,-327 137,-339 137,-339 137,-345 131,-351 125,-351"/>
<text text-anchor="middle" x="68.5" y="-330.5" font-family="sans" font-size="10.00" fill="#000000">download_gencode_data</text>
</g>
<!-- 5&#45;&gt;3 -->
<g id="edge5" class="edge">
<title>5&#45;&gt;3</title>
<path fill="none" stroke="#c0c0c0" stroke-width="2" d="M68.5,-314.8314C68.5,-307.131 68.5,-297.9743 68.5,-289.4166"/>
<polygon fill="#c0c0c0" stroke="#c0c0c0" stroke-width="2" points="72.0001,-289.4132 68.5,-279.4133 65.0001,-289.4133 72.0001,-289.4132"/>
</g>
</g>
</svg>
